<svg width="190" height="43" viewBox="0 0 190 43" fill="none" xmlns="http://www.w3.org/2000/svg">
<path d="M60.0295 29.0018H65.7404L63.6959 23.5563C63.4145 22.804 63.1378 21.9732 62.8651 21.0631C62.619 21.8682 62.3506 22.6903 62.0605 23.5301L60.0295 29.0018ZM66.7162 31.587H59.0668L57.1944 36.6783H53.8313L61.3221 17.6646H64.5005L72.163 36.6783H68.6286L66.7162 31.587Z" fill="#090909"/>
<path d="M82.0838 33.2207C82.7477 32.3329 83.0797 31.0358 83.0797 29.33C83.0797 27.7469 82.8048 26.5984 82.2555 25.8852C81.7057 25.1724 80.9738 24.816 80.0594 24.816C79.4264 24.816 78.8418 24.965 78.3055 25.2622C77.7692 25.5596 77.2591 25.9575 76.7755 26.4562V34.0408C77.101 34.1981 77.4791 34.3229 77.9099 34.4144C78.3408 34.5068 78.7673 34.5527 79.189 34.5527C80.4554 34.5527 81.4199 34.1084 82.0838 33.2207ZM73.5183 25.9839C73.5183 24.9342 73.483 23.7793 73.4129 22.5198H76.4723C76.5865 23.1059 76.6658 23.7053 76.7098 24.3174C77.9757 22.9442 79.4264 22.2571 81.0618 22.2571C82.0115 22.2571 82.8906 22.4955 83.6996 22.9722C84.5082 23.4491 85.1612 24.2014 85.6578 25.2291C86.1549 26.2572 86.4032 27.5632 86.4032 29.1463C86.4032 30.7996 86.1196 32.2126 85.5524 33.3846C84.9852 34.5571 84.1919 35.4446 83.172 36.0486C82.1522 36.6519 80.9738 36.9539 79.6377 36.9539C78.6701 36.9539 77.7161 36.7919 76.7755 36.4685V42.3205L73.5183 42.5962V25.9839Z" fill="#090909"/>
<path d="M96.9456 33.2207C97.6095 32.3329 97.9415 31.0358 97.9415 29.33C97.9415 27.7469 97.6666 26.5984 97.1173 25.8852C96.5675 25.1724 95.8356 24.816 94.9212 24.816C94.2882 24.816 93.7036 24.965 93.1673 25.2622C92.6306 25.5596 92.1209 25.9575 91.6374 26.4562V34.0408C91.9628 34.1981 92.3405 34.3229 92.7718 34.4144C93.2022 34.5068 93.6287 34.5527 94.0508 34.5527C95.3168 34.5527 96.2817 34.1084 96.9456 33.2207ZM88.3796 25.9839C88.3796 24.9342 88.3444 23.7793 88.2742 22.5198H91.3342C91.4483 23.1059 91.5276 23.7053 91.5716 24.3174C92.8376 22.9442 94.2882 22.2571 95.9236 22.2571C96.8733 22.2571 97.752 22.4955 98.5614 22.9722C99.3699 23.4491 100.023 24.2014 100.52 25.2291C101.016 26.2572 101.265 27.5632 101.265 29.1463C101.265 30.7996 100.981 32.2126 100.414 33.3846C99.847 34.5571 99.0533 35.4446 98.0339 36.0486C97.0136 36.6519 95.8356 36.9539 94.4991 36.9539C93.5319 36.9539 92.5779 36.7919 91.6374 36.4685V42.3205L88.3796 42.5962V25.9839Z" fill="#090909"/>
<path d="M107.249 35.7794C105.842 35.0056 104.761 33.8964 104.005 32.453C103.248 31.0096 102.87 29.3037 102.87 27.3354C102.87 25.2012 103.306 23.3878 104.176 21.8962C105.046 20.405 106.231 19.2852 107.73 18.5371C109.229 17.7892 110.91 17.4152 112.775 17.4152C113.874 17.4152 114.922 17.5356 115.92 17.776C116.918 18.0168 117.848 18.3468 118.71 18.7669L117.879 21.2599C116.146 20.4377 114.494 20.0264 112.92 20.0264C111.592 20.0264 110.43 20.3087 109.432 20.873C108.434 21.4373 107.658 22.2661 107.104 23.3596C106.55 24.4532 106.273 25.774 106.273 27.3222C106.273 28.6786 106.486 29.8811 106.912 30.9308C107.339 31.9806 108.012 32.812 108.931 33.424C109.849 34.0364 111.008 34.3424 112.406 34.3424C113.039 34.3424 113.672 34.2901 114.305 34.1851C114.938 34.0803 115.531 33.9272 116.085 33.7257V29.8811H111.667V27.3617H119.25V35.3663C118.16 35.8734 117.015 36.2631 115.815 36.534C114.614 36.8049 113.421 36.9405 112.234 36.9405C110.317 36.9405 108.655 36.554 107.249 35.7794Z" fill="#090909"/>
<path d="M128.874 34.0537C129.551 33.7305 130.105 33.3277 130.536 32.8467V30.2223C129.648 30.1263 128.922 30.078 128.36 30.078C127.015 30.078 126.085 30.2942 125.571 30.7277C125.056 31.1601 124.799 31.7444 124.799 32.4791C124.799 33.1795 124.986 33.6975 125.36 34.0342C125.734 34.371 126.241 34.5393 126.883 34.5393C127.533 34.5393 128.197 34.3776 128.874 34.0537ZM130.826 36.6783C130.712 36.127 130.637 35.5018 130.602 34.8019C130.101 35.397 129.448 35.902 128.643 36.3176C127.839 36.733 126.931 36.9405 125.92 36.9405C125.102 36.9405 124.357 36.781 123.684 36.4615C123.013 36.1426 122.478 35.6614 122.082 35.0181C121.687 34.3754 121.489 33.5905 121.489 32.6628C121.489 31.2896 121.985 30.1938 122.979 29.3757C123.973 28.5579 125.63 28.149 127.951 28.149C128.821 28.149 129.683 28.2105 130.536 28.3327V28.0572C130.536 26.8063 130.268 25.925 129.731 25.4129C129.195 24.9015 128.426 24.6455 127.424 24.6455C126.729 24.6455 125.986 24.7463 125.195 24.9473C124.404 25.1487 123.709 25.3892 123.111 25.669L122.597 23.3071C123.177 23.0445 123.942 22.804 124.891 22.5853C125.841 22.3668 126.843 22.2571 127.898 22.2571C129.129 22.2571 130.175 22.443 131.037 22.8147C131.899 23.1867 132.571 23.8255 133.055 24.7305C133.538 25.6363 133.78 26.8546 133.78 28.3852V34.0142C133.78 34.6007 133.815 35.489 133.886 36.6783H130.826Z" fill="#090909"/>
<path d="M136.279 33.2796V16.5492L139.524 16.2867V32.7022C139.524 33.306 139.627 33.7322 139.833 33.9817C140.04 34.2306 140.367 34.3559 140.816 34.3559C141.018 34.3559 141.304 34.3079 141.673 34.2115L142.056 36.534C141.748 36.6566 141.372 36.755 140.929 36.8291C140.484 36.9033 140.064 36.9405 139.669 36.9405C137.409 36.9405 136.279 35.7204 136.279 33.2796Z" fill="#090909"/>
<path d="M144.39 33.2796V16.5492L147.634 16.2867V32.7022C147.634 33.306 147.738 33.7322 147.944 33.9817C148.151 34.2306 148.479 34.3559 148.927 34.3559C149.129 34.3559 149.415 34.3079 149.784 34.2115L150.167 36.534C149.859 36.6566 149.483 36.755 149.039 36.8291C148.595 36.9033 148.175 36.9405 147.779 36.9405C145.52 36.9405 144.39 35.7204 144.39 33.2796Z" fill="#090909"/>
<path d="M160.333 27.9523C160.268 26.8237 159.984 25.9775 159.475 25.4129C158.965 24.849 158.281 24.5666 157.432 24.5666C156.604 24.5666 155.915 24.8512 155.367 25.4196C154.818 25.9885 154.456 26.8326 154.291 27.9523H160.333ZM163.509 30.0123H154.199C154.347 32.978 155.767 34.4607 158.46 34.4607C159.126 34.4607 159.81 34.3798 160.512 34.2181C161.209 34.0559 161.879 33.8397 162.52 33.5683L163.234 35.7858C161.64 36.556 159.854 36.9405 157.867 36.9405C156.351 36.9405 155.079 36.6566 154.042 36.0879C153.001 35.5193 152.221 34.7014 151.698 33.6338C151.177 32.5671 150.915 31.281 150.915 29.7761C150.915 28.2105 151.192 26.8631 151.746 25.7346C152.3 24.606 153.071 23.7446 154.06 23.1496C155.049 22.5548 156.19 22.2571 157.484 22.2571C158.83 22.2571 159.95 22.57 160.851 23.1956C161.753 23.8208 162.42 24.6543 162.855 25.6951C163.291 26.7366 163.509 27.8866 163.509 29.1463V30.0123Z" fill="#090909"/>
<path d="M165.974 26.0757C165.974 25.2974 165.935 24.1122 165.865 22.5198H168.915C168.967 22.9134 169.015 23.3836 169.067 23.9305C169.115 24.4771 169.146 24.921 169.163 25.2622C169.542 24.6411 169.913 24.1184 170.278 23.6943C170.644 23.2696 171.071 22.9244 171.559 22.6572C172.047 22.3906 172.6 22.2572 173.228 22.2572C173.729 22.2572 174.156 22.3098 174.517 22.4148L174.108 25.2229C173.794 25.1267 173.441 25.0785 173.054 25.0785C172.291 25.0785 171.62 25.2732 171.05 25.6626C170.479 26.0515 169.869 26.6924 169.216 27.5847V36.6783H165.974V26.0757Z" fill="#090909"/>
<path d="M176.347 42.4714C175.872 42.3886 175.48 42.2945 175.175 42.1896L175.768 39.8277C175.985 39.8885 176.264 39.9478 176.6 40.0046C176.931 40.0619 177.249 40.09 177.549 40.09C178.991 40.09 180.072 39.1667 180.791 37.3212L181.004 36.7963L175.754 22.5198H179.248L181.888 30.4977C182.315 31.8627 182.594 32.9081 182.716 33.6338C182.964 32.6104 183.252 31.5869 183.587 30.5634L186.266 22.5198H189.547L184.315 36.8621C183.823 38.2179 183.287 39.3111 182.716 40.1425C182.145 40.9733 181.47 41.5901 180.695 41.9927C179.915 42.3947 178.978 42.5962 177.876 42.5962C177.332 42.5962 176.822 42.555 176.347 42.4714Z" fill="#090909"/>
<path d="M53.8313 0.126505H59.2161L59.0646 1.4274H55.4094V3.94676H58.8561V5.16562H55.4094V7.95656H59.2601L59.1276 9.26995H53.8313V0.126505Z" fill="#090909"/>
<path d="M62.9278 4.60347L60.0871 0.126505H61.8798L63.8053 3.41654L65.8319 0.126505H67.574L64.7584 4.5465L67.8076 9.26995H65.9895L63.8118 5.67079L61.5958 9.26995H59.8536L62.9278 4.60347Z" fill="#090909"/>
<path d="M72.9273 4.20864C73.2639 3.90393 73.4323 3.47312 73.4323 2.91744C73.4323 2.35327 73.2606 1.94752 72.918 1.69898C72.575 1.45044 72.0708 1.32637 71.4062 1.32637H70.5476V4.57196C70.9432 4.635 71.2462 4.66652 71.4567 4.66652C72.1003 4.66652 72.5908 4.51417 72.9273 4.20864ZM68.9691 0.126505H71.4312C72.5883 0.126505 73.4744 0.362518 74.0889 0.833736C74.7034 1.30536 75.0104 1.98713 75.0104 2.87945C75.0104 3.48565 74.8727 4.01546 74.5971 4.46769C74.3212 4.92031 73.9374 5.26787 73.4449 5.50954C72.9528 5.75202 72.3863 5.87285 71.7467 5.87285C71.3977 5.87285 70.9977 5.83082 70.5476 5.74636V9.26995H68.9691V0.126505Z" fill="#090909"/>
<path d="M76.57 0.126505H78.1481V7.91857H81.9293L81.7968 9.26995H76.57V0.126505Z" fill="#090909"/>
<path d="M88.4191 7.70073C88.8611 7.4041 89.1912 6.99593 89.4101 6.47581C89.6291 5.9561 89.7386 5.36121 89.7386 4.69197C89.7386 4.03526 89.6416 3.45047 89.4481 2.93642C89.2542 2.42277 88.9451 2.01379 88.5201 1.70827C88.095 1.40315 87.548 1.25038 86.8785 1.25038C86.239 1.25038 85.696 1.40516 85.2499 1.71473C84.8039 2.02389 84.4693 2.43893 84.2463 2.95865C84.0233 3.47877 83.9118 4.05223 83.9118 4.67944C83.9118 5.3402 84.0169 5.93185 84.2273 6.45358C84.4374 6.97572 84.7594 7.38834 85.1934 7.69144C85.6265 7.99454 86.163 8.14608 86.803 8.14608C87.4385 8.14608 87.9771 7.99736 88.4191 7.70073ZM84.3284 8.82179C83.6593 8.43868 83.1478 7.90078 82.7943 7.2081C82.4408 6.51582 82.2642 5.71079 82.2642 4.793C82.2642 3.82915 82.4521 2.98613 82.8291 2.26395C83.2056 1.54217 83.7486 0.984465 84.4576 0.590436C85.1667 0.197216 86.003 0 86.967 0C87.8886 0 88.6821 0.190751 89.3471 0.571443C90.0117 0.952944 90.5192 1.48841 90.8682 2.17867C91.2177 2.86933 91.3922 3.66911 91.3922 4.57841C91.3922 5.55924 91.202 6.41195 90.821 7.13575C90.44 7.85956 89.8974 8.41766 89.1924 8.80886C88.4874 9.20047 87.6595 9.39623 86.7084 9.39623C85.7909 9.39623 84.9974 9.20491 84.3284 8.82179Z" fill="#090909"/>
<path d="M95.6285 4.45193C96.0111 4.45193 96.35 4.37757 96.6445 4.22764C96.9391 4.07851 97.1686 3.86796 97.3326 3.59638C97.497 3.3248 97.579 3.00999 97.579 2.65233C97.579 2.19364 97.4336 1.8578 97.1435 1.64523C96.853 1.43266 96.43 1.32637 95.8745 1.32637H94.7319V4.45193H95.6285ZM93.1538 0.126505H96.0135C97.057 0.126505 97.8473 0.335036 98.3839 0.751696C98.9204 1.16836 99.1887 1.76445 99.1887 2.53877C99.1887 3.02292 99.0917 3.44928 98.8982 3.81744C98.7047 4.18601 98.4647 4.48587 98.1786 4.71704C97.8922 4.94861 97.5981 5.12117 97.295 5.23513L100.104 9.26995H98.2736L95.8935 5.64533H94.7319V9.26995H93.1538V0.126505Z" fill="#090909"/>
<path d="M101.354 0.126505H106.739L106.587 1.4274H102.932V3.94676H106.379V5.16562H102.932V7.95656H106.783L106.65 9.26995H101.354V0.126505Z" fill="#090909"/>
<path d="M112.597 0.126505H114.175V9.26995H112.597V0.126505Z" fill="#090909"/>
<path d="M118.348 1.4464H115.513L115.652 0.126505H122.767L122.622 1.4464H119.926V9.26995H118.348V1.4464Z" fill="#090909"/>
<path d="M133.707 7.70073C134.149 7.4041 134.479 6.99593 134.698 6.47581C134.917 5.9561 135.026 5.36121 135.026 4.69197C135.026 4.03526 134.93 3.45047 134.736 2.93642C134.542 2.42277 134.233 2.01379 133.808 1.70827C133.383 1.40315 132.836 1.25038 132.167 1.25038C131.527 1.25038 130.984 1.40516 130.538 1.71473C130.092 2.02389 129.757 2.43893 129.535 2.95865C129.311 3.47877 129.2 4.05223 129.2 4.67944C129.2 5.3402 129.305 5.93185 129.516 6.45358C129.726 6.97572 130.048 7.38834 130.481 7.69144C130.915 7.99454 131.451 8.14608 132.091 8.14608C132.726 8.14608 133.265 7.99736 133.707 7.70073ZM129.617 8.82179C128.947 8.43868 128.436 7.90078 128.083 7.2081C127.729 6.51582 127.552 5.71079 127.552 4.793C127.552 3.82915 127.74 2.98613 128.117 2.26395C128.493 1.54217 129.037 0.984465 129.746 0.590436C130.455 0.197216 131.291 0 132.255 0C133.177 0 133.97 0.190751 134.635 0.571443C135.3 0.952944 135.807 1.48841 136.157 2.17867C136.506 2.86933 136.681 3.66911 136.681 4.57841C136.681 5.55924 136.49 6.41195 136.109 7.13575C135.728 7.85956 135.185 8.41766 134.481 8.80886C133.776 9.20047 132.947 9.39623 131.996 9.39623C131.079 9.39623 130.286 9.20491 129.617 8.82179Z" fill="#090909"/>
<path d="M138.442 0.126505H140.254L144.774 7.21134C144.734 6.53806 144.718 5.91691 144.718 5.3487V0.126505H146.18V9.26995H144.427L139.837 2.07119C139.883 2.88834 139.906 3.61214 139.906 4.2434V9.26995H138.442V0.126505Z" fill="#090909"/>
<path fill-rule="evenodd" clip-rule="evenodd" d="M31.9571 0.156555H12.9927C4.05916 0.156555 0.791611 3.34247 0.791611 12.0528V30.5437C0.791611 39.2537 4.05916 42.4396 12.9927 42.4396H31.9512C40.8847 42.4396 44.1582 39.2537 44.1582 30.5437V12.0528C44.1582 3.34247 40.8906 0.156555 31.9571 0.156555" fill="#C91C2E"/>
<path d="M20.0857 24.1925H21.7754L20.9279 22.214L20.0857 24.1925ZM19.6698 25.1898L19.1686 26.3411H18.0276L20.4543 20.8145H21.4401L23.857 26.3411H22.6854L22.1904 25.1898H19.6698ZM38.0308 26.3373H39.1337V20.8145H38.0308V26.3373ZM33.6418 23.9642H35.6742V22.9578H33.6418V21.8256H36.5922V20.818H32.5393V26.3406H36.6986V25.3333H33.6418V23.9642ZM29.2598 24.6168L28.0092 20.8144H27.0975L25.8469 24.6168L24.63 20.817H23.4406L25.3604 26.3437H26.2855L27.5378 22.7134L28.7897 26.3437H29.7232L31.6382 20.817H30.4794L29.2598 24.6168ZM16.3442 23.9795C16.3442 24.8786 15.8994 25.3589 15.0918 25.3589C14.2798 25.3589 13.8328 24.865 13.8328 23.9412V20.8176H12.7152V23.9795C12.7152 25.5351 13.576 26.4269 15.0767 26.4269C16.5921 26.4269 17.4613 25.518 17.4613 23.9337V20.8144H16.3442V23.9795ZM10.0487 20.8145H11.1658V26.3441H10.0487V24.0986H7.52485V26.3441H6.40732V20.8145H7.52485V23.0452H10.0487V20.8145Z" fill="white"/>
<path d="M22.7709 13.7738C18.9043 13.7738 15.7583 10.6155 15.7583 6.73379H16.749C16.749 10.0672 19.4502 12.7793 22.7709 12.7793C26.0916 12.7793 28.7928 10.0672 28.7928 6.73379H29.7835C29.7835 10.6155 26.6375 13.7738 22.7709 13.7738" fill="white"/>
</svg>
