<svg width="181" height="43" viewBox="0 0 181 43" fill="none" xmlns="http://www.w3.org/2000/svg">
<g filter="url(#filter0_ii_833_1291)">
<path d="M1.46377 0.659144C0.982592 1.17042 0.69818 1.96391 0.69818 2.99145V39.704C0.69818 40.7332 0.982592 41.525 1.46377 42.0363L1.58614 42.1558L22.0719 21.5901V21.3477V21.1054L1.58614 0.537964L1.46377 0.659144Z" fill="url(#paint0_linear_833_1291)"/>
<path d="M28.8988 28.4471L22.0713 21.5897V21.3473V21.1049L28.9005 14.2491L29.0543 14.3371L37.1451 18.9519C39.4551 20.27 39.4551 22.4263 37.1451 23.746L29.0543 28.3608L28.8988 28.4471Z" fill="url(#paint1_linear_833_1291)"/>
<g filter="url(#filter1_i_833_1291)">
<path d="M29.0548 28.3593L22.0702 21.3474L1.46369 42.036C2.22432 42.8461 3.48266 42.9457 4.89975 42.1389L29.0548 28.3593Z" fill="url(#paint2_linear_833_1291)"/>
</g>
<path d="M29.0548 14.3359L4.89975 0.557885C3.48266 -0.250535 2.22432 -0.149275 1.46369 0.660805L22.0718 21.3494L29.0548 14.3359Z" fill="url(#paint3_linear_833_1291)"/>
</g>
<path d="M90.8354 23.3563C87.1622 23.3563 84.1684 26.1488 84.1684 29.9949C84.1684 33.8176 87.1622 36.6335 90.8354 36.6335C94.5101 36.6335 97.5039 33.8176 97.5039 29.9949C97.5024 26.1488 94.5086 23.3563 90.8354 23.3563ZM90.8354 34.0206C88.8223 34.0206 87.0873 32.3613 87.0873 29.9965C87.0873 27.6067 88.8239 25.9724 90.8354 25.9724C92.8485 25.9724 94.5835 27.6067 94.5835 29.9965C94.5835 32.3597 92.8485 34.0206 90.8354 34.0206ZM76.2895 23.3563C72.6164 23.3563 69.6226 26.1488 69.6226 29.9949C69.6226 33.8176 72.6164 36.6335 76.2895 36.6335C79.9643 36.6335 82.9581 33.8176 82.9581 29.9949C82.9581 26.1488 79.9643 23.3563 76.2895 23.3563ZM76.2895 34.0206C74.2765 34.0206 72.5414 32.3613 72.5414 29.9965C72.5414 27.6067 74.278 25.9724 76.2895 25.9724C78.3026 25.9724 80.0377 27.6067 80.0377 29.9965C80.0392 32.3597 78.3026 34.0206 76.2895 34.0206ZM58.9888 25.3949V28.2108H65.7323C65.5308 29.7951 65.003 30.9518 64.1971 31.7556C63.2164 32.7359 61.6812 33.8176 58.9888 33.8176C54.8378 33.8176 51.5925 30.4726 51.5925 26.3236C51.5925 22.1747 54.8378 18.8296 58.9888 18.8296C61.2283 18.8296 62.8634 19.71 64.0706 20.8416L66.0587 18.8546C64.3721 17.2452 62.1341 16.0137 58.9888 16.0137C53.3026 16.0137 48.5222 20.6403 48.5222 26.3236C48.5222 32.007 53.3026 36.6335 58.9888 36.6335C62.0576 36.6335 64.3736 35.6267 66.1836 33.7411C68.0452 31.8805 68.6246 29.2644 68.6246 27.1525C68.6246 26.5 68.5746 25.8959 68.4731 25.3933L58.9888 25.3949ZM129.747 27.5817C129.194 26.0988 127.508 23.3563 124.061 23.3563C120.639 23.3563 117.795 26.0473 117.795 29.9949C117.795 33.7162 120.614 36.6335 124.387 36.6335C127.431 36.6335 129.193 34.7729 129.924 33.6912L127.659 32.1818C126.905 33.2885 125.873 34.0174 124.387 34.0174C122.904 34.0174 121.846 33.3384 121.167 32.0054L130.049 28.3341L129.747 27.5817ZM120.689 29.7951C120.614 27.2289 122.677 25.9225 124.162 25.9225C125.32 25.9225 126.3 26.5016 126.628 27.3304L120.689 29.7951ZM113.469 36.2324H116.387V16.7192H113.469V36.2324ZM108.687 24.8407H108.587C107.933 24.0603 106.674 23.3563 105.091 23.3563C101.769 23.3563 98.7252 26.2737 98.7252 30.0215C98.7252 33.7427 101.769 36.6351 105.091 36.6351C106.676 36.6351 107.933 35.9311 108.587 35.1273H108.687V36.0825C108.687 38.6222 107.329 39.9802 105.141 39.9802C103.354 39.9802 102.247 38.6987 101.794 37.6169L99.2531 38.6737C99.9824 40.4328 101.919 42.5963 105.141 42.5963C108.562 42.5963 111.456 40.5843 111.456 35.6798V23.7606H108.689L108.687 24.8407ZM105.342 34.0206C103.329 34.0206 101.644 32.3347 101.644 30.0215C101.644 27.6816 103.329 25.9724 105.342 25.9724C107.329 25.9724 108.889 27.6816 108.889 30.0215C108.889 32.3347 107.329 34.0206 105.342 34.0206ZM143.419 16.7192H136.436V36.2324H139.349V28.8398H143.417C146.647 28.8398 149.823 26.5031 149.823 22.7803C149.823 19.0575 146.648 16.7192 143.419 16.7192ZM143.493 26.1238H139.349V19.4352H143.493C145.672 19.4352 146.909 21.2381 146.909 22.7803C146.909 24.2913 145.672 26.1238 143.493 26.1238ZM161.503 23.3219C159.393 23.3219 157.208 24.2507 156.304 26.3096L158.89 27.3882C159.443 26.3096 160.474 25.9568 161.553 25.9568C163.06 25.9568 164.592 26.8606 164.617 28.4668V28.6681C164.089 28.3669 162.959 27.9158 161.578 27.9158C158.791 27.9158 155.951 29.447 155.951 32.3082C155.951 34.9196 158.238 36.6008 160.799 36.6008C162.757 36.6008 163.838 35.722 164.516 34.6918H164.616V36.198H167.43V28.7165C167.432 25.2544 164.842 23.3219 161.503 23.3219ZM161.15 34.0159C160.198 34.0159 158.865 33.5382 158.865 32.3582C158.865 30.8519 160.524 30.2743 161.956 30.2743C163.235 30.2743 163.84 30.5506 164.617 30.9268C164.391 32.7359 162.834 34.0159 161.15 34.0159ZM177.678 23.7481L174.337 32.2083H174.237L170.77 23.7481H167.631L172.83 35.5721L169.866 42.1499H172.905L180.919 23.7481H177.678ZM151.432 36.2324H154.344V16.7192H151.432V36.2324Z" fill="#090909"/>
<path d="M58.6249 5.17722C58.6249 6.46158 58.238 7.48385 57.4625 8.24711C56.5825 9.15444 55.4341 9.60811 54.0236 9.60811C52.6723 9.60811 51.5224 9.14831 50.5784 8.22872C49.6328 7.3076 49.16 6.16731 49.16 4.80631C49.16 3.44379 49.6328 2.3035 50.5784 1.38391C51.5224 0.462788 52.6723 0.00299469 54.0236 0.00299469C54.6945 0.00299469 55.3358 0.131736 55.9443 0.387689C56.5544 0.645174 57.0428 0.986955 57.4079 1.41456L56.5856 2.2238C55.9662 1.49579 55.1127 1.13256 54.022 1.13256C53.0359 1.13256 52.1839 1.4728 51.4646 2.1533C50.7453 2.8338 50.3864 3.71813 50.3864 4.80478C50.3864 5.89143 50.7453 6.77577 51.4646 7.45626C52.1839 8.13676 53.0359 8.47701 54.022 8.47701C55.0674 8.47701 55.9396 8.13523 56.6371 7.45013C57.0896 7.00413 57.3517 6.38341 57.4219 5.58797H54.022V4.48293H58.5578C58.6047 4.72355 58.6249 4.95498 58.6249 5.17722Z" fill="#090909"/>
<path d="M65.8182 1.33648H61.5554V4.25158H65.4V5.35662H61.5554V8.27172H65.8182V9.40282H60.3524V0.206923H65.8182V1.33648Z" fill="#090909"/>
<path d="M70.8906 9.40282H69.6876V1.33648H67.0725V0.206923H73.5057V1.33648H70.8906V9.40282Z" fill="#090909"/>
<path d="M78.1601 9.40282V0.206923H79.3631V9.40282H78.1601Z" fill="#090909"/>
<path d="M84.6981 9.40282H83.4951V1.33648H80.88V0.206923H87.3132V1.33648H84.6981V9.40282Z" fill="#090909"/>
<path d="M99.4911 8.215C98.5705 9.14379 97.4268 9.60818 96.0584 9.60818C94.69 9.60818 93.5463 9.14379 92.6273 8.215C91.7067 7.28621 91.2479 6.14899 91.2479 4.80486C91.2479 3.46072 91.7067 2.3235 92.6273 1.39471C93.5463 0.465925 94.69 0 96.0584 0C97.419 0 98.5612 0.467457 99.4849 1.40084C100.409 2.33422 100.87 3.46839 100.87 4.80486C100.87 6.14899 100.41 7.28621 99.4911 8.215ZM93.5151 7.44408C94.2079 8.13377 95.0551 8.47708 96.0584 8.47708C97.0617 8.47708 97.9105 8.13224 98.6017 7.44408C99.2945 6.75438 99.6425 5.87464 99.6425 4.80486C99.6425 3.73507 99.2945 2.85533 98.6017 2.16563C97.9105 1.47594 97.0617 1.13263 96.0584 1.13263C95.0551 1.13263 94.2079 1.47747 93.5151 2.16563C92.8239 2.85533 92.4759 3.73507 92.4759 4.80486C92.4759 5.87464 92.8239 6.75438 93.5151 7.44408Z" fill="#090909"/>
<path d="M102.559 9.40282V0.206923H104.022L108.572 7.3598H108.624L108.572 5.58805V0.206923H109.775V9.40282H108.519L103.759 1.90203H103.707L103.759 3.67377V9.40282H102.559Z" fill="#090909"/>
<defs>
<filter id="filter0_ii_833_1291" x="0.698181" y="0" width="38.1794" height="42.6962" filterUnits="userSpaceOnUse" color-interpolation-filters="sRGB">
<feFlood flood-opacity="0" result="BackgroundImageFix"/>
<feBlend mode="normal" in="SourceGraphic" in2="BackgroundImageFix" result="shape"/>
<feColorMatrix in="SourceAlpha" type="matrix" values="0 0 0 0 0 0 0 0 0 0 0 0 0 0 0 0 0 0 127 0" result="hardAlpha"/>
<feOffset dy="-0.249"/>
<feComposite in2="hardAlpha" operator="arithmetic" k2="-1" k3="1"/>
<feColorMatrix type="matrix" values="0 0 0 0 0 0 0 0 0 0 0 0 0 0 0 0 0 0 0.12 0"/>
<feBlend mode="normal" in2="shape" result="effect1_innerShadow_833_1291"/>
<feColorMatrix in="SourceAlpha" type="matrix" values="0 0 0 0 0 0 0 0 0 0 0 0 0 0 0 0 0 0 127 0" result="hardAlpha"/>
<feOffset dy="0.249"/>
<feComposite in2="hardAlpha" operator="arithmetic" k2="-1" k3="1"/>
<feColorMatrix type="matrix" values="0 0 0 0 1 0 0 0 0 1 0 0 0 0 1 0 0 0 0.25 0"/>
<feBlend mode="normal" in2="effect1_innerShadow_833_1291" result="effect2_innerShadow_833_1291"/>
</filter>
<filter id="filter1_i_833_1291" x="1.46368" y="21.3474" width="27.5911" height="21.3488" filterUnits="userSpaceOnUse" color-interpolation-filters="sRGB">
<feFlood flood-opacity="0" result="BackgroundImageFix"/>
<feBlend mode="normal" in="SourceGraphic" in2="BackgroundImageFix" result="shape"/>
<feColorMatrix in="SourceAlpha" type="matrix" values="0 0 0 0 0 0 0 0 0 0 0 0 0 0 0 0 0 0 127 0" result="hardAlpha"/>
<feOffset dy="-0.249"/>
<feComposite in2="hardAlpha" operator="arithmetic" k2="-1" k3="1"/>
<feColorMatrix type="matrix" values="0 0 0 0 0 0 0 0 0 0 0 0 0 0 0 0 0 0 0.08 0"/>
<feBlend mode="normal" in2="shape" result="effect1_innerShadow_833_1291"/>
</filter>
<linearGradient id="paint0_linear_833_1291" x1="20.256" y1="2.603" x2="-7.60192" y2="30.3526" gradientUnits="userSpaceOnUse">
<stop stop-color="#00A0FF"/>
<stop offset="0.0066" stop-color="#00A1FF"/>
<stop offset="0.2601" stop-color="#00BEFF"/>
<stop offset="0.5122" stop-color="#00D2FF"/>
<stop offset="0.7604" stop-color="#00DFFF"/>
<stop offset="1" stop-color="#00E3FF"/>
</linearGradient>
<linearGradient id="paint1_linear_833_1291" x1="40.152" y1="21.3473" x2="0.143018" y2="21.3473" gradientUnits="userSpaceOnUse">
<stop stop-color="#FFE000"/>
<stop offset="0.4087" stop-color="#FFBD00"/>
<stop offset="0.7754" stop-color="#FFA500"/>
<stop offset="1" stop-color="#FF9C00"/>
</linearGradient>
<linearGradient id="paint2_linear_833_1291" x1="25.2617" y1="25.1553" x2="-12.5171" y2="62.7872" gradientUnits="userSpaceOnUse">
<stop stop-color="#FF3A44"/>
<stop offset="1" stop-color="#C31162"/>
</linearGradient>
<linearGradient id="paint3_linear_833_1291" x1="-3.72614" y1="-11.5604" x2="13.1432" y2="5.24326" gradientUnits="userSpaceOnUse">
<stop stop-color="#32A071"/>
<stop offset="0.0685" stop-color="#2DA771"/>
<stop offset="0.4762" stop-color="#15CF74"/>
<stop offset="0.8009" stop-color="#06E775"/>
<stop offset="1" stop-color="#00F076"/>
</linearGradient>
</defs>
</svg>
