<svg width="24" height="25" viewBox="0 0 24 25" fill="none" xmlns="http://www.w3.org/2000/svg">
<path d="M21.6846 19.2033C21.3216 20.0418 20.892 20.8136 20.3942 21.5232C19.7157 22.4906 19.1602 23.1602 18.7321 23.5321C18.0684 24.1424 17.3573 24.455 16.5958 24.4728C16.0492 24.4728 15.3899 24.3172 14.6226 24.0016C13.8527 23.6876 13.1451 23.532 12.4982 23.532C11.8197 23.532 11.092 23.6876 10.3137 24.0016C9.53412 24.3172 8.90614 24.4816 8.426 24.4979C7.69581 24.5291 6.96799 24.2076 6.24149 23.532C5.77779 23.1276 5.19782 22.4343 4.50301 21.4521C3.75755 20.4032 3.1447 19.187 2.66455 17.8004C2.15035 16.3027 1.89258 14.8523 1.89258 13.4482C1.89258 11.8398 2.24013 10.4526 2.93625 9.29012C3.48335 8.35638 4.21117 7.6198 5.12211 7.07909C6.03303 6.53836 7.01731 6.2628 8.07728 6.24519C8.65727 6.24519 9.41782 6.42459 10.363 6.77717C11.3055 7.13094 11.9106 7.31034 12.176 7.31034C12.3743 7.31034 13.0466 7.10056 14.1863 6.68236C15.264 6.29452 16.1736 6.13391 16.9188 6.19718C18.938 6.36014 20.455 7.15611 21.4638 8.59015C19.658 9.68434 18.7646 11.2169 18.7824 13.1829C18.7987 14.7142 19.3543 15.9886 20.4461 17.0004C20.9409 17.47 21.4935 17.833 22.1082 18.0907C21.9749 18.4774 21.8342 18.8478 21.6846 19.2033V19.2033ZM17.0536 0.980142C17.0536 2.18041 16.6151 3.3011 15.741 4.33841C14.6863 5.57157 13.4105 6.28413 12.0269 6.17169C12.0084 6.02079 11.9991 5.86891 11.9991 5.71688C11.9991 4.56462 12.5007 3.33147 13.3915 2.32321C13.8362 1.8127 14.4018 1.38824 15.0877 1.04962C15.7722 0.716065 16.4195 0.531597 17.0284 0.5C17.0462 0.660452 17.0536 0.820924 17.0536 0.980122V0.980142Z" fill="black"/>
</svg>
