<svg width="24" height="25" viewBox="0 0 24 25" fill="none" xmlns="http://www.w3.org/2000/svg">
<path d="M24 12.5C24 5.87258 18.6274 0.5 12 0.5C5.37258 0.5 0 5.87258 0 12.5C0 18.4895 4.38822 23.454 10.125 24.3542V15.9688H7.07813V12.5H10.125V9.85626C10.125 6.84875 11.9165 5.18751 14.6576 5.18751C15.9705 5.18751 17.3438 5.42188 17.3438 5.42188V8.375H15.8306C14.3399 8.375 13.875 9.30002 13.875 10.249V12.5H17.2031L16.6711 15.9688H13.875V24.3542C19.6118 23.454 24 18.4895 24 12.5Z" fill="#1877F2"/>
<path d="M16.6711 15.9687L17.2031 12.5H13.875V10.249C13.875 9.30001 14.3399 8.37499 15.8306 8.37499H17.3438V5.42187C17.3438 5.42187 15.9705 5.1875 14.6576 5.1875C11.9165 5.1875 10.125 6.84874 10.125 9.85625V12.5H7.07812V15.9687H10.125V24.3542C10.7453 24.4514 11.3722 24.5002 12 24.5C12.6379 24.5 13.264 24.4501 13.875 24.3542V15.9687H16.6711Z" fill="white"/>
</svg>
