<svg width="24" height="25" viewBox="0 0 24 25" fill="none" xmlns="http://www.w3.org/2000/svg">
<path d="M23.7612 12.7737C23.7622 11.956 23.6931 11.1397 23.5546 10.3338H12.2383V14.9553H18.7197C18.5871 15.6934 18.3064 16.3971 17.8945 17.0238C17.4826 17.6505 16.9481 18.1873 16.3231 18.6019V21.6018H20.1914C22.4563 19.5135 23.7612 16.4253 23.7612 12.7737Z" fill="#4285F4"/>
<path d="M12.2369 24.5C15.4752 24.5 18.2017 23.4367 20.19 21.6034L16.3218 18.6035C15.2452 19.3335 13.8586 19.7502 12.2369 19.7502C9.10704 19.7502 6.45046 17.6402 5.50049 14.797H1.51562V17.8886C2.51437 19.876 4.04584 21.5467 5.93905 22.7141C7.83226 23.8816 10.0127 24.4999 12.2369 24.5V24.5Z" fill="#34A853"/>
<path d="M5.50089 14.797C4.99868 13.3071 4.99868 11.6937 5.50089 10.2038V7.11224H1.51603C0.675846 8.78411 0.238281 10.6293 0.238281 12.5004C0.238281 14.3715 0.675846 16.2167 1.51603 17.8886L5.50089 14.797Z" fill="#FBBC04"/>
<path d="M12.2369 5.25063C13.9482 5.22267 15.6017 5.86924 16.8401 7.05057L20.265 3.62568C18.0933 1.58588 15.2162 0.46599 12.2369 0.500787C10.0127 0.500889 7.83226 1.11919 5.93905 2.28667C4.04584 3.45414 2.51437 5.12484 1.51562 7.11224L5.50049 10.2038C6.45046 7.36056 9.10704 5.25063 12.2369 5.25063V5.25063Z" fill="#EA4335"/>
</svg>
