<svg width="216" height="216" viewBox="0 0 216 216" fill="none" xmlns="http://www.w3.org/2000/svg">
<g opacity="0.1">
<path d="M9.64126 19.2825C14.966 19.2825 19.2825 14.966 19.2825 9.64126C19.2825 4.31654 14.966 0 9.64126 0C4.31654 0 0 4.31654 0 9.64126C0 14.966 4.31654 19.2825 9.64126 19.2825Z" fill="#1E4854"/>
<path d="M48.9237 19.2825C54.2484 19.2825 58.565 14.966 58.565 9.64126C58.565 4.31654 54.2484 0 48.9237 0C43.599 0 39.2825 4.31654 39.2825 9.64126C39.2825 14.966 43.599 19.2825 48.9237 19.2825Z" fill="#1E4854"/>
<path d="M88.2062 19.2825C93.5309 19.2825 97.8475 14.966 97.8475 9.64126C97.8475 4.31654 93.5309 0 88.2062 0C82.8815 0 78.5649 4.31654 78.5649 9.64126C78.5649 14.966 82.8815 19.2825 88.2062 19.2825Z" fill="#1E4854"/>
<path d="M127.489 19.2825C132.813 19.2825 137.13 14.966 137.13 9.64126C137.13 4.31654 132.813 0 127.489 0C122.164 0 117.847 4.31654 117.847 9.64126C117.847 14.966 122.164 19.2825 127.489 19.2825Z" fill="#1E4854"/>
<path d="M166.771 19.2825C172.096 19.2825 176.412 14.966 176.412 9.64126C176.412 4.31654 172.096 0 166.771 0C161.446 0 157.13 4.31654 157.13 9.64126C157.13 14.966 161.446 19.2825 166.771 19.2825Z" fill="#1E4854"/>
<path d="M206.054 19.2825C211.378 19.2825 215.695 14.966 215.695 9.64126C215.695 4.31654 211.378 0 206.054 0C200.729 0 196.412 4.31654 196.412 9.64126C196.412 14.966 200.729 19.2825 206.054 19.2825Z" fill="#1E4854"/>
<path d="M9.64126 58.5647C14.966 58.5647 19.2825 54.2482 19.2825 48.9235C19.2825 43.5988 14.966 39.2822 9.64126 39.2822C4.31654 39.2822 0 43.5988 0 48.9235C0 54.2482 4.31654 58.5647 9.64126 58.5647Z" fill="#1E4854"/>
<path d="M48.9237 58.5647C54.2484 58.5647 58.565 54.2482 58.565 48.9235C58.565 43.5988 54.2484 39.2822 48.9237 39.2822C43.599 39.2822 39.2825 43.5988 39.2825 48.9235C39.2825 54.2482 43.599 58.5647 48.9237 58.5647Z" fill="#1E4854"/>
<path d="M88.2062 58.5647C93.5309 58.5647 97.8475 54.2482 97.8475 48.9235C97.8475 43.5988 93.5309 39.2822 88.2062 39.2822C82.8815 39.2822 78.5649 43.5988 78.5649 48.9235C78.5649 54.2482 82.8815 58.5647 88.2062 58.5647Z" fill="#1E4854"/>
<path d="M127.489 58.5647C132.813 58.5647 137.13 54.2482 137.13 48.9235C137.13 43.5988 132.813 39.2822 127.489 39.2822C122.164 39.2822 117.847 43.5988 117.847 48.9235C117.847 54.2482 122.164 58.5647 127.489 58.5647Z" fill="#1E4854"/>
<path d="M166.771 58.5647C172.096 58.5647 176.412 54.2482 176.412 48.9235C176.412 43.5988 172.096 39.2822 166.771 39.2822C161.446 39.2822 157.13 43.5988 157.13 48.9235C157.13 54.2482 161.446 58.5647 166.771 58.5647Z" fill="#1E4854"/>
<path d="M206.054 58.5647C211.378 58.5647 215.695 54.2482 215.695 48.9235C215.695 43.5988 211.378 39.2822 206.054 39.2822C200.729 39.2822 196.412 43.5988 196.412 48.9235C196.412 54.2482 200.729 58.5647 206.054 58.5647Z" fill="#1E4854"/>
<path d="M9.64126 97.847C14.966 97.847 19.2825 93.5304 19.2825 88.2057C19.2825 82.881 14.966 78.5645 9.64126 78.5645C4.31654 78.5645 0 82.881 0 88.2057C0 93.5304 4.31654 97.847 9.64126 97.847Z" fill="#1E4854"/>
<path d="M48.9237 97.847C54.2484 97.847 58.565 93.5304 58.565 88.2057C58.565 82.881 54.2484 78.5645 48.9237 78.5645C43.599 78.5645 39.2825 82.881 39.2825 88.2057C39.2825 93.5304 43.599 97.847 48.9237 97.847Z" fill="#1E4854"/>
<path d="M88.2062 97.847C93.5309 97.847 97.8475 93.5304 97.8475 88.2057C97.8475 82.881 93.5309 78.5645 88.2062 78.5645C82.8815 78.5645 78.5649 82.881 78.5649 88.2057C78.5649 93.5304 82.8815 97.847 88.2062 97.847Z" fill="#1E4854"/>
<path d="M127.489 97.847C132.813 97.847 137.13 93.5304 137.13 88.2057C137.13 82.881 132.813 78.5645 127.489 78.5645C122.164 78.5645 117.847 82.881 117.847 88.2057C117.847 93.5304 122.164 97.847 127.489 97.847Z" fill="#1E4854"/>
<path d="M166.771 97.847C172.096 97.847 176.412 93.5304 176.412 88.2057C176.412 82.881 172.096 78.5645 166.771 78.5645C161.446 78.5645 157.13 82.881 157.13 88.2057C157.13 93.5304 161.446 97.847 166.771 97.847Z" fill="#1E4854"/>
<path d="M206.054 97.847C211.378 97.847 215.695 93.5304 215.695 88.2057C215.695 82.881 211.378 78.5645 206.054 78.5645C200.729 78.5645 196.412 82.881 196.412 88.2057C196.412 93.5304 200.729 97.847 206.054 97.847Z" fill="#1E4854"/>
<path d="M9.64126 137.129C14.966 137.129 19.2825 132.813 19.2825 127.488C19.2825 122.163 14.966 117.847 9.64126 117.847C4.31654 117.847 0 122.163 0 127.488C0 132.813 4.31654 137.129 9.64126 137.129Z" fill="#1E4854"/>
<path d="M48.9237 137.129C54.2484 137.129 58.565 132.813 58.565 127.488C58.565 122.163 54.2484 117.847 48.9237 117.847C43.599 117.847 39.2825 122.163 39.2825 127.488C39.2825 132.813 43.599 137.129 48.9237 137.129Z" fill="#1E4854"/>
<path d="M88.2062 137.129C93.5309 137.129 97.8475 132.813 97.8475 127.488C97.8475 122.163 93.5309 117.847 88.2062 117.847C82.8815 117.847 78.5649 122.163 78.5649 127.488C78.5649 132.813 82.8815 137.129 88.2062 137.129Z" fill="#1E4854"/>
<path d="M127.489 137.129C132.813 137.129 137.13 132.813 137.13 127.488C137.13 122.163 132.813 117.847 127.489 117.847C122.164 117.847 117.847 122.163 117.847 127.488C117.847 132.813 122.164 137.129 127.489 137.129Z" fill="#1E4854"/>
<path d="M166.771 137.129C172.096 137.129 176.412 132.813 176.412 127.488C176.412 122.163 172.096 117.847 166.771 117.847C161.446 117.847 157.13 122.163 157.13 127.488C157.13 132.813 161.446 137.129 166.771 137.129Z" fill="#1E4854"/>
<path d="M206.054 137.129C211.378 137.129 215.695 132.813 215.695 127.488C215.695 122.163 211.378 117.847 206.054 117.847C200.729 117.847 196.412 122.163 196.412 127.488C196.412 132.813 200.729 137.129 206.054 137.129Z" fill="#1E4854"/>
<path d="M9.64126 176.411C14.966 176.411 19.2825 172.095 19.2825 166.77C19.2825 161.445 14.966 157.129 9.64126 157.129C4.31654 157.129 0 161.445 0 166.77C0 172.095 4.31654 176.411 9.64126 176.411Z" fill="#1E4854"/>
<path d="M48.9237 176.411C54.2484 176.411 58.565 172.095 58.565 166.77C58.565 161.445 54.2484 157.129 48.9237 157.129C43.599 157.129 39.2825 161.445 39.2825 166.77C39.2825 172.095 43.599 176.411 48.9237 176.411Z" fill="#1E4854"/>
<path d="M88.2062 176.411C93.5309 176.411 97.8475 172.095 97.8475 166.77C97.8475 161.445 93.5309 157.129 88.2062 157.129C82.8815 157.129 78.5649 161.445 78.5649 166.77C78.5649 172.095 82.8815 176.411 88.2062 176.411Z" fill="#1E4854"/>
<path d="M127.489 176.411C132.813 176.411 137.13 172.095 137.13 166.77C137.13 161.445 132.813 157.129 127.489 157.129C122.164 157.129 117.847 161.445 117.847 166.77C117.847 172.095 122.164 176.411 127.489 176.411Z" fill="#1E4854"/>
<path d="M166.771 176.411C172.096 176.411 176.412 172.095 176.412 166.77C176.412 161.445 172.096 157.129 166.771 157.129C161.446 157.129 157.13 161.445 157.13 166.77C157.13 172.095 161.446 176.411 166.771 176.411Z" fill="#1E4854"/>
<path d="M206.054 176.411C211.378 176.411 215.695 172.095 215.695 166.77C215.695 161.445 211.378 157.129 206.054 157.129C200.729 157.129 196.412 161.445 196.412 166.77C196.412 172.095 200.729 176.411 206.054 176.411Z" fill="#1E4854"/>
<path d="M9.64126 215.694C14.966 215.694 19.2825 211.377 19.2825 206.052C19.2825 200.728 14.966 196.411 9.64126 196.411C4.31654 196.411 0 200.728 0 206.052C0 211.377 4.31654 215.694 9.64126 215.694Z" fill="#1E4854"/>
<path d="M48.9237 215.694C54.2484 215.694 58.565 211.377 58.565 206.052C58.565 200.728 54.2484 196.411 48.9237 196.411C43.599 196.411 39.2825 200.728 39.2825 206.052C39.2825 211.377 43.599 215.694 48.9237 215.694Z" fill="#1E4854"/>
<path d="M88.2062 215.694C93.5309 215.694 97.8475 211.377 97.8475 206.052C97.8475 200.728 93.5309 196.411 88.2062 196.411C82.8815 196.411 78.5649 200.728 78.5649 206.052C78.5649 211.377 82.8815 215.694 88.2062 215.694Z" fill="#1E4854"/>
<path d="M127.489 215.694C132.813 215.694 137.13 211.377 137.13 206.052C137.13 200.728 132.813 196.411 127.489 196.411C122.164 196.411 117.847 200.728 117.847 206.052C117.847 211.377 122.164 215.694 127.489 215.694Z" fill="#1E4854"/>
<path d="M166.771 215.694C172.096 215.694 176.412 211.377 176.412 206.052C176.412 200.728 172.096 196.411 166.771 196.411C161.446 196.411 157.13 200.728 157.13 206.052C157.13 211.377 161.446 215.694 166.771 215.694Z" fill="#1E4854"/>
<path d="M206.054 215.694C211.378 215.694 215.695 211.377 215.695 206.052C215.695 200.728 211.378 196.411 206.054 196.411C200.729 196.411 196.412 200.728 196.412 206.052C196.412 211.377 200.729 215.694 206.054 215.694Z" fill="#1E4854"/>
</g>
</svg>
