<svg width="187" height="48" viewBox="0 0 187 48" fill="none" xmlns="http://www.w3.org/2000/svg">
<path d="M31.6674 24.1578C31.7124 20.651 33.5883 17.3329 36.5643 15.4962C34.6868 12.8044 31.5423 11.0978 28.2707 10.995C24.7812 10.6273 21.3984 13.0912 19.6202 13.0912C17.8076 13.0912 15.0699 11.0315 12.1218 11.0924C8.27906 11.2171 4.69668 13.4104 2.82711 16.783C-1.19172 23.7682 1.80597 34.034 5.65567 39.6802C7.58176 42.445 9.8328 45.5334 12.7782 45.4239C15.6605 45.3039 16.737 43.5788 20.2162 43.5788C23.6631 43.5788 24.673 45.4239 27.6783 45.3543C30.7711 45.3039 32.7197 42.5772 34.5782 39.7862C35.9621 37.8161 37.027 35.6388 37.7335 33.3349C34.0988 31.7916 31.6716 28.1196 31.6674 24.1578Z" fill="#090909"/>
<path d="M25.991 7.28178C27.6773 5.24949 28.5081 2.63731 28.3069 0C25.7306 0.271653 23.3507 1.50779 21.6416 3.46211C19.9703 5.37158 19.1006 7.93779 19.265 10.4743C21.8423 10.5009 24.376 9.29832 25.991 7.28178Z" fill="#090909"/>
<path d="M134.471 20.5363V24.7857H131.817V27.5725H134.471V37.0412C134.471 40.2744 135.928 41.5677 139.593 41.5677C140.237 41.5677 140.851 41.4907 141.387 41.3984V38.6424C140.927 38.6886 140.636 38.7194 140.13 38.7194C138.489 38.7194 137.768 37.9496 137.768 36.1944V27.5725H141.387V24.7857H137.768V20.5363H134.471Z" fill="#090909"/>
<path d="M150.725 41.7987C155.602 41.7987 158.592 38.5193 158.592 33.0843C158.592 27.6802 155.586 24.3854 150.725 24.3854C145.848 24.3854 142.842 27.6802 142.842 33.0843C142.842 38.5193 145.832 41.7987 150.725 41.7987ZM150.725 38.858C147.857 38.858 146.247 36.7487 146.247 33.0843C146.247 29.4508 147.857 27.3261 150.725 27.3261C153.577 27.3261 155.203 29.4508 155.203 33.0843C155.203 36.7333 153.577 38.858 150.725 38.858Z" fill="#090909"/>
<path d="M161.151 41.4754H164.449V31.5755C164.449 29.2199 166.212 27.634 168.712 27.634C169.295 27.634 170.276 27.7418 170.552 27.8342V24.5702C170.2 24.4778 169.571 24.4316 169.08 24.4316C166.902 24.4316 165.047 25.6325 164.571 27.2799H164.326V24.7087H161.151V41.4754Z" fill="#090909"/>
<path d="M178.74 27.2029C181.178 27.2029 182.773 28.9119 182.85 31.5447H174.415C174.599 28.9273 176.301 27.2029 178.74 27.2029ZM182.835 36.9488C182.221 38.2575 180.856 38.9811 178.862 38.9811C176.224 38.9811 174.522 37.1182 174.415 34.1775V33.9927H186.209V32.838C186.209 27.5725 183.402 24.3854 178.755 24.3854C174.047 24.3854 171.056 27.788 171.056 33.1459C171.056 38.5039 173.985 41.7987 178.77 41.7987C182.589 41.7987 185.258 39.9511 186.009 36.9488H182.835Z" fill="#090909"/>
<path d="M112.847 35.2837C113.101 39.4008 116.519 42.0339 121.606 42.0339C127.042 42.0339 130.444 39.2732 130.444 34.8688C130.444 31.4059 128.505 29.491 123.799 28.3899L121.272 27.7676C118.284 27.0654 117.075 26.1239 117.075 24.4802C117.075 22.4057 118.951 21.0493 121.765 21.0493C124.435 21.0493 126.279 22.3738 126.613 24.4962H130.078C129.872 20.6184 126.47 17.8896 121.812 17.8896C116.805 17.8896 113.467 20.6184 113.467 24.7196C113.467 28.1027 115.359 30.1134 119.507 31.0868L122.464 31.8049C125.5 32.523 126.835 33.5762 126.835 35.3316C126.835 37.3742 124.737 38.8583 121.876 38.8583C118.808 38.8583 116.678 37.4699 116.376 35.2837H112.847Z" fill="#090909"/>
<path d="M78.69 24.4316C76.4202 24.4316 74.4572 25.5709 73.445 27.4801H73.1996V24.7087H70.0249V47.0488H73.3223V38.935H73.583C74.4572 40.7055 76.3436 41.7525 78.7207 41.7525C82.9382 41.7525 85.6221 38.4115 85.6221 33.0843C85.6221 27.7572 82.9382 24.4316 78.69 24.4316ZM77.7545 38.781C74.9939 38.781 73.2609 36.5947 73.2609 33.0997C73.2609 29.5894 74.9939 27.4031 77.7698 27.4031C80.5611 27.4031 82.2328 29.5432 82.2328 33.0843C82.2328 36.6409 80.5611 38.781 77.7545 38.781Z" fill="#090909"/>
<path d="M97.1601 24.4316C94.8903 24.4316 92.9272 25.5709 91.915 27.4801H91.6696V24.7087H88.495V47.0488H91.7923V38.935H92.053C92.9272 40.7055 94.8136 41.7525 97.1907 41.7525C101.408 41.7525 104.092 38.4115 104.092 33.0843C104.092 27.7572 101.408 24.4316 97.1601 24.4316ZM96.2245 38.781C93.464 38.781 91.7309 36.5947 91.7309 33.0997C91.7309 29.5894 93.464 27.4031 96.2399 27.4031C99.0311 27.4031 100.703 29.5432 100.703 33.0843C100.703 36.6409 99.0311 38.781 96.2245 38.781Z" fill="#090909"/>
<path d="M64.1089 41.4754H67.8921L59.6104 18.4482H55.7795L47.4978 41.4754H51.1538L53.268 35.3635H62.0107L64.1089 41.4754ZM57.5122 22.6291H57.7824L61.1046 32.3634H54.174L57.5122 22.6291Z" fill="#090909"/>
<path d="M47.4064 2.20603V11.3081H50.6799C53.3817 11.3081 54.9462 9.63653 54.9462 6.72867C54.9462 3.86496 53.3691 2.20603 50.6799 2.20603H47.4064ZM48.8138 3.4928H50.5228C52.4015 3.4928 53.5136 4.69127 53.5136 6.74759C53.5136 8.83545 52.4204 10.0213 50.5228 10.0213H48.8138V3.4928Z" fill="#090909"/>
<path d="M59.7378 11.4405C61.7358 11.4405 62.9611 10.097 62.9611 7.87037C62.9611 5.65636 61.7296 4.3065 59.7378 4.3065C57.7397 4.3065 56.5082 5.65636 56.5082 7.87037C56.5082 10.097 57.7334 11.4405 59.7378 11.4405ZM59.7378 10.2358C58.5628 10.2358 57.9031 9.37161 57.9031 7.87037C57.9031 6.38174 58.5628 5.51128 59.7378 5.51128C60.9065 5.51128 61.5725 6.38174 61.5725 7.87037C61.5725 9.3653 60.9065 10.2358 59.7378 10.2358Z" fill="#090909"/>
<path d="M73.395 4.43896H72.0441L70.8251 9.68069H70.7183L69.3109 4.43896H68.0165L66.6091 9.68069H66.5086L65.2833 4.43896H63.9136L65.7986 11.3081H67.1872L68.5946 6.24928H68.7014L70.1151 11.3081H71.5163L73.395 4.43896Z" fill="#090909"/>
<path d="M74.9507 11.3081H76.3016V7.29006C76.3016 6.21774 76.9362 5.54912 77.9352 5.54912C78.9342 5.54912 79.4118 6.0979 79.4118 7.20175V11.3081H80.7626V6.86113C80.7626 5.22743 79.9207 4.3065 78.3939 4.3065C77.3634 4.3065 76.6848 4.76697 76.3518 5.5302H76.2513V4.43896H74.9507V11.3081Z" fill="#090909"/>
<path d="M82.8901 11.3081H84.241V1.75818H82.8901V11.3081Z" fill="#090909"/>
<path d="M89.3216 11.4405C91.3197 11.4405 92.5449 10.097 92.5449 7.87037C92.5449 5.65636 91.3134 4.3065 89.3216 4.3065C87.3236 4.3065 86.0921 5.65636 86.0921 7.87037C86.0921 10.097 87.3173 11.4405 89.3216 11.4405ZM89.3216 10.2358C88.1467 10.2358 87.4869 9.37161 87.4869 7.87037C87.4869 6.38174 88.1467 5.51128 89.3216 5.51128C90.4903 5.51128 91.1563 6.38174 91.1563 7.87037C91.1563 9.3653 90.4903 10.2358 89.3216 10.2358Z" fill="#090909"/>
<path d="M96.5699 10.2799C95.8348 10.2799 95.3007 9.92038 95.3007 9.30222C95.3007 8.69668 95.728 8.37499 96.6705 8.31191L98.3418 8.20468V8.77868C98.3418 9.63022 97.5878 10.2799 96.5699 10.2799ZM96.2244 11.4216C97.1229 11.4216 97.8706 11.0305 98.279 10.343H98.3858V11.3081H99.6864V6.61513C99.6864 5.16435 98.7188 4.3065 97.0035 4.3065C95.4515 4.3065 94.3457 5.06343 94.2075 6.24297H95.5144C95.6652 5.75728 96.1867 5.47974 96.9406 5.47974C97.8643 5.47974 98.3418 5.88974 98.3418 6.61513V7.20806L96.4883 7.31529C94.8609 7.41621 93.9436 8.12899 93.9436 9.3653C93.9436 10.6205 94.9049 11.4216 96.2244 11.4216Z" fill="#090909"/>
<path d="M104.271 11.4216C105.213 11.4216 106.011 10.9738 106.419 10.2232H106.526V11.3081H107.821V1.75818H106.47V5.5302H106.369C105.999 4.77327 105.207 4.32542 104.271 4.32542C102.543 4.32542 101.431 5.70051 101.431 7.87037C101.431 10.0465 102.53 11.4216 104.271 11.4216ZM104.654 5.54282C105.785 5.54282 106.495 6.44482 106.495 7.87668C106.495 9.31484 105.791 10.2042 104.654 10.2042C103.51 10.2042 102.825 9.32745 102.825 7.87037C102.825 6.4259 103.517 5.54282 104.654 5.54282Z" fill="#090909"/>
<path d="M116.581 11.4405C118.579 11.4405 119.804 10.097 119.804 7.87037C119.804 5.65636 118.572 4.3065 116.581 4.3065C114.583 4.3065 113.351 5.65636 113.351 7.87037C113.351 10.097 114.576 11.4405 116.581 11.4405ZM116.581 10.2358C115.406 10.2358 114.746 9.37161 114.746 7.87037C114.746 6.38174 115.406 5.51128 116.581 5.51128C117.749 5.51128 118.415 6.38174 118.415 7.87037C118.415 9.3653 117.749 10.2358 116.581 10.2358Z" fill="#090909"/>
<path d="M121.592 11.3081H122.943V7.29006C122.943 6.21774 123.578 5.54912 124.577 5.54912C125.576 5.54912 126.053 6.0979 126.053 7.20175V11.3081H127.404V6.86113C127.404 5.22743 126.562 4.3065 125.035 4.3065C124.005 4.3065 123.326 4.76697 122.993 5.5302H122.893V4.43896H121.592V11.3081Z" fill="#090909"/>
<path d="M133.626 2.72957V4.4705H132.539V5.6122H133.626V9.49146C133.626 10.8161 134.223 11.3459 135.724 11.3459C135.988 11.3459 136.24 11.3144 136.459 11.2765V10.1475C136.271 10.1664 136.152 10.179 135.944 10.179C135.272 10.179 134.977 9.86361 134.977 9.14453V5.6122H136.459V4.4705H134.977V2.72957H133.626Z" fill="#090909"/>
<path d="M138.273 11.3081H139.624V7.29637C139.624 6.25559 140.239 5.55543 141.345 5.55543C142.3 5.55543 142.809 6.11051 142.809 7.20806V11.3081H144.16V6.87375C144.16 5.24005 143.262 4.31281 141.804 4.31281C140.774 4.31281 140.051 4.77327 139.718 5.54282H139.611V1.75818H138.273V11.3081Z" fill="#090909"/>
<path d="M149.033 5.46082C150.032 5.46082 150.686 6.16097 150.717 7.2396H147.262C147.337 6.16728 148.034 5.46082 149.033 5.46082ZM150.711 9.45361C150.46 9.98977 149.901 10.2862 149.084 10.2862C148.003 10.2862 147.306 9.52299 147.262 8.31822V8.24252H152.093V7.76944C152.093 5.6122 150.944 4.3065 149.04 4.3065C147.111 4.3065 145.886 5.70051 145.886 7.8956C145.886 10.0907 147.086 11.4405 149.046 11.4405C150.611 11.4405 151.704 10.6836 152.012 9.45361H150.711Z" fill="#090909"/>
</svg>
