<svg width="196" height="44" viewBox="0 0 196 44" fill="none" xmlns="http://www.w3.org/2000/svg">
<rect x="0.546875" width="42.9343" height="43.1018" rx="16.5776" fill="url(#paint0_angular_833_1273)"/>
<path fill-rule="evenodd" clip-rule="evenodd" d="M28.2755 15.8638L28.1872 15.4737C28.1872 12.0573 25.4179 9.27808 22.0141 9.27808C18.6105 9.27808 15.8415 12.0573 15.8415 15.4737L15.7531 15.8638H10.6844L12.0507 28.6504C12.3243 31.2512 14.5092 33.225 17.1145 33.225H26.914C29.5192 33.225 31.7041 31.2512 31.9777 28.6507L33.3441 15.8638H28.2755ZM18.4364 15.8638L18.536 15.4737C18.536 13.5486 20.0963 11.9825 22.0141 11.9825C23.9324 11.9825 25.4927 13.5486 25.4927 15.4737L25.5921 15.8638H18.4364Z" fill="white"/>
<path d="M86.0925 19.9807H89.0826V36.3124H86.0925V19.9807Z" fill="#090909"/>
<path d="M53.1536 28.2599C53.1536 23.6697 56.6048 19.9839 61.353 19.9839C64.6727 19.9839 67.2889 21.6832 68.6516 24.1107L66.0136 25.6999C65.0245 23.8682 63.4859 22.897 61.3752 22.897C58.3855 22.897 56.1211 25.3245 56.1211 28.2599C56.1211 31.2389 58.3637 33.6228 61.4849 33.6228C63.8812 33.6228 65.5521 32.2543 66.1233 30.1358H61.0016V27.2668H69.3329V28.4588C69.3329 32.8059 66.2775 36.5363 61.4849 36.5363C56.4729 36.5363 53.1536 32.7176 53.1536 28.2599Z" fill="#090909"/>
<path d="M70.6988 29.8714C70.6988 25.5898 73.8204 23.1405 77.074 23.1405C78.7667 23.1405 80.2835 23.8463 81.207 24.9499V23.4053H84.1745V36.3156H81.207V34.6376C80.2613 35.8295 78.7227 36.5804 77.03 36.5804C73.9301 36.5804 70.6988 34.086 70.6988 29.8714ZM81.3606 29.8272C81.3606 27.6423 79.7119 25.8547 77.5137 25.8547C75.3155 25.8547 73.6228 27.5986 73.6228 29.8272C73.6228 32.0777 75.3155 33.8435 77.5137 33.8435C79.7119 33.8435 81.3606 32.0558 81.3606 29.8272Z" fill="#090909"/>
<path d="M90.5959 29.8714C90.5959 25.5898 93.7175 23.1405 96.971 23.1405C98.6638 23.1405 100.181 23.8463 101.104 24.9499V23.4053H104.072V36.3156H101.104V34.6376C100.159 35.8295 98.6202 36.5804 96.9271 36.5804C93.8276 36.5804 90.5959 34.086 90.5959 29.8714ZM101.258 29.8272C101.258 27.6423 99.6094 25.8547 97.4117 25.8547C95.213 25.8547 93.5203 27.5986 93.5203 29.8272C93.5203 32.0777 95.213 33.8435 97.4117 33.8435C99.6089 33.8435 101.258 32.0558 101.258 29.8272Z" fill="#090909"/>
<path d="M109.856 29.7389L105.196 23.4053H108.823L111.746 27.5099L114.649 23.4053H118.166L113.549 29.7831L118.473 36.3156H114.846L111.703 32.0122L108.647 36.3156H105.019L109.856 29.7389Z" fill="#090909"/>
<path d="M124.037 35.6752L118.761 23.4049H121.926L125.51 32.1L128.895 23.4049H132.017L124.345 42.2737H121.333L124.037 35.6752Z" fill="#090909"/>
<path d="M138.109 33.6451L140.835 31.4824C141.648 32.8728 142.901 33.6669 144.352 33.6669C145.935 33.6669 146.792 32.6306 146.792 31.5043C146.792 30.1362 145.166 29.7171 143.451 29.1874C141.297 28.5029 138.901 27.6646 138.901 24.5968C138.901 22.015 141.143 19.9844 144.22 19.9844C146.815 19.9844 148.309 20.9778 149.606 22.324L147.144 24.1995C146.462 23.1846 145.517 22.6549 144.242 22.6549C142.792 22.6549 142 23.4495 142 24.4862C142 25.7664 143.539 26.186 145.276 26.7599C147.452 27.4657 149.914 28.4369 149.914 31.5266C149.914 34.0642 147.892 36.5367 144.374 36.5367C141.472 36.5363 139.559 35.2998 138.109 33.6451Z" fill="#090909"/>
<path d="M150.157 23.4049H152.356V21.4407L155.346 19.3882V23.4049H157.962V26.0754H155.346V30.9081C155.346 33.1595 155.654 33.5126 157.962 33.5126V36.3151H157.544C153.566 36.3151 152.356 35.0354 152.356 30.9308V26.0754H150.158L150.157 23.4049Z" fill="#090909"/>
<path d="M158.754 29.8714C158.754 26.1195 161.7 23.14 165.415 23.14C169.107 23.14 172.075 26.1195 172.075 29.8714C172.075 33.6009 169.107 36.5804 165.415 36.5804C161.7 36.5804 158.754 33.6009 158.754 29.8714ZM169.152 29.8714C169.152 27.7087 167.503 25.943 165.415 25.943C163.282 25.943 161.677 27.7087 161.677 29.8714C161.677 32.0122 163.282 33.7775 165.415 33.7775C167.503 33.7775 169.152 32.0122 169.152 29.8714Z" fill="#090909"/>
<path d="M176.54 23.4049V25.3249C177.134 24.0448 178.211 23.4049 179.837 23.4049C180.761 23.4049 181.53 23.6256 182.102 23.9565L180.98 26.7813C180.54 26.4945 180.035 26.2738 179.199 26.2738C177.485 26.2738 176.562 27.2009 176.562 29.4295V36.3151H173.594V23.4049H176.54Z" fill="#090909"/>
<path d="M182.433 29.8932C182.433 26.1195 185.356 23.14 189.116 23.14C192.941 23.14 195.733 25.9648 195.733 29.7831V30.9081H185.269C185.665 32.7185 187.116 33.9541 189.226 33.9541C190.875 33.9541 192.172 33.0493 192.787 31.6808L195.227 33.093C194.106 35.1683 192.084 36.58 189.226 36.58C185.181 36.58 182.433 33.6228 182.433 29.8932ZM185.423 28.4146H192.721C192.282 26.6934 190.963 25.7664 189.116 25.7664C187.335 25.7664 185.95 26.8477 185.423 28.4146Z" fill="#090909"/>
<path d="M58.984 8.47019H55.1656L54.4622 10.4247H53.2564L56.4217 1.68619H57.7405L60.8932 10.4247H59.6874L58.984 8.47019ZM58.6574 7.53707L57.0748 3.09847L55.4922 7.53707H58.6574Z" fill="#090909"/>
<path d="M64.0815 9.36547L66.2168 3.51459H67.4352L64.7346 10.4247H63.4032L60.7027 3.51459H61.9336L64.0815 9.36547Z" fill="#090909"/>
<path d="M68.2585 6.94442C68.2585 6.23828 68.4008 5.6204 68.6855 5.0908C68.9702 4.55279 69.3596 4.13667 69.8537 3.84244C70.3561 3.54822 70.913 3.4011 71.5242 3.4011C72.1272 3.4011 72.6505 3.5314 73.0943 3.792C73.5381 4.0526 73.8689 4.38045 74.0866 4.77556V3.51459H75.2422V10.4247H74.0866V9.1385C73.8605 9.54201 73.5214 9.87826 73.0692 10.1473C72.6254 10.4079 72.1062 10.5382 71.5117 10.5382C70.9004 10.5382 70.3477 10.3869 69.8537 10.0842C69.3596 9.78159 68.9702 9.35707 68.6855 8.81065C68.4008 8.26423 68.2585 7.64215 68.2585 6.94442ZM74.0866 6.95703C74.0866 6.43583 73.9819 5.98188 73.7726 5.59518C73.5633 5.20849 73.2785 4.91426 72.9185 4.71251C72.5668 4.50235 72.1774 4.39727 71.7503 4.39727C71.3233 4.39727 70.9339 4.49814 70.5822 4.6999C70.2305 4.90165 69.95 5.19588 69.7406 5.58258C69.5313 5.96927 69.4266 6.42322 69.4266 6.94442C69.4266 7.47402 69.5313 7.93638 69.7406 8.33148C69.95 8.71818 70.2305 9.0166 70.5822 9.22677C70.9339 9.42852 71.3233 9.5294 71.7503 9.5294C72.1774 9.5294 72.5668 9.42852 72.9185 9.22677C73.2785 9.0166 73.5633 8.71818 73.7726 8.33148C73.9819 7.93638 74.0866 7.47823 74.0866 6.95703Z" fill="#090909"/>
<path d="M77.5129 2.39233C77.2952 2.39233 77.111 2.31667 76.9602 2.16536C76.8095 2.01404 76.7342 1.8291 76.7342 1.61053C76.7342 1.39197 76.8095 1.20703 76.9602 1.05571C77.111 0.904393 77.2952 0.828735 77.5129 0.828735C77.7223 0.828735 77.8981 0.904393 78.0405 1.05571C78.1912 1.20703 78.2666 1.39197 78.2666 1.61053C78.2666 1.8291 78.1912 2.01404 78.0405 2.16536C77.8981 2.31667 77.7223 2.39233 77.5129 2.39233ZM78.0656 3.51459V10.4247H76.9226V3.51459H78.0656Z" fill="#090909"/>
<path d="M80.9055 1.09354V10.4247H79.7624V1.09354H80.9055Z" fill="#090909"/>
<path d="M82.4265 6.94442C82.4265 6.23828 82.5688 5.6204 82.8535 5.0908C83.1382 4.55279 83.5276 4.13667 84.0217 3.84244C84.5241 3.54822 85.081 3.4011 85.6922 3.4011C86.2951 3.4011 86.8185 3.5314 87.2623 3.792C87.7061 4.0526 88.0369 4.38045 88.2546 4.77556V3.51459H89.4102V10.4247H88.2546V9.1385C88.0285 9.54201 87.6894 9.87826 87.2372 10.1473C86.7934 10.4079 86.2742 10.5382 85.6797 10.5382C85.0684 10.5382 84.5157 10.3869 84.0217 10.0842C83.5276 9.78159 83.1382 9.35707 82.8535 8.81065C82.5688 8.26423 82.4265 7.64215 82.4265 6.94442ZM88.2546 6.95703C88.2546 6.43583 88.1499 5.98188 87.9406 5.59518C87.7312 5.20849 87.4465 4.91426 87.0865 4.71251C86.7348 4.50235 86.3454 4.39727 85.9183 4.39727C85.4913 4.39727 85.1019 4.49814 84.7502 4.6999C84.3985 4.90165 84.118 5.19588 83.9086 5.58258C83.6993 5.96927 83.5946 6.42322 83.5946 6.94442C83.5946 7.47402 83.6993 7.93638 83.9086 8.33148C84.118 8.71818 84.3985 9.0166 84.7502 9.22677C85.1019 9.42852 85.4913 9.5294 85.9183 9.5294C86.3454 9.5294 86.7348 9.42852 87.0865 9.22677C87.4465 9.0166 87.7312 8.71818 87.9406 8.33148C88.1499 7.93638 88.2546 7.47823 88.2546 6.95703Z" fill="#090909"/>
<path d="M92.6104 4.80078C92.8449 4.38886 93.1882 4.0526 93.6404 3.792C94.0926 3.5314 94.6075 3.4011 95.1853 3.4011C95.805 3.4011 96.3618 3.54822 96.8559 3.84244C97.3499 4.13667 97.7393 4.55279 98.024 5.0908C98.3087 5.6204 98.4511 6.23828 98.4511 6.94442C98.4511 7.64215 98.3087 8.26423 98.024 8.81065C97.7393 9.35707 97.3458 9.78159 96.8433 10.0842C96.3493 10.3869 95.7966 10.5382 95.1853 10.5382C94.5908 10.5382 94.0674 10.4079 93.6152 10.1473C93.1714 9.88667 92.8365 9.55462 92.6104 9.15111V10.4247H91.4674V1.09354H92.6104V4.80078ZM97.283 6.94442C97.283 6.42322 97.1783 5.96927 96.9689 5.58258C96.7596 5.19588 96.4749 4.90165 96.1148 4.6999C95.7631 4.49814 95.3737 4.39727 94.9467 4.39727C94.528 4.39727 94.1386 4.50235 93.7785 4.71251C93.4268 4.91426 93.1421 5.21269 92.9244 5.60779C92.7151 5.99449 92.6104 6.44423 92.6104 6.95703C92.6104 7.47823 92.7151 7.93638 92.9244 8.33148C93.1421 8.71818 93.4268 9.0166 93.7785 9.22677C94.1386 9.42852 94.528 9.5294 94.9467 9.5294C95.3737 9.5294 95.7631 9.42852 96.1148 9.22677C96.4749 9.0166 96.7596 8.71818 96.9689 8.33148C97.1783 7.93638 97.283 7.47402 97.283 6.94442Z" fill="#090909"/>
<path d="M101.099 1.09354V10.4247H99.9556V1.09354H101.099Z" fill="#090909"/>
<path d="M109.453 6.70483C109.453 6.9234 109.44 7.15458 109.415 7.39836H103.913C103.955 8.07929 104.186 8.6131 104.604 8.99979C105.031 9.37808 105.546 9.56723 106.149 9.56723C106.643 9.56723 107.054 9.45374 107.38 9.22677C107.715 8.99139 107.95 8.68035 108.084 8.29365H109.314C109.13 8.95776 108.762 9.49997 108.209 9.9203C107.656 10.3322 106.97 10.5382 106.149 10.5382C105.496 10.5382 104.91 10.3911 104.391 10.0968C103.88 9.80261 103.478 9.38649 103.185 8.84848C102.892 8.30206 102.745 7.67157 102.745 6.95703C102.745 6.24248 102.888 5.6162 103.172 5.07819C103.457 4.54018 103.855 4.12826 104.366 3.84244C104.885 3.54822 105.479 3.4011 106.149 3.4011C106.802 3.4011 107.38 3.54401 107.883 3.82983C108.385 4.11565 108.77 4.51075 109.038 5.01514C109.314 5.51112 109.453 6.07435 109.453 6.70483ZM108.272 6.46525C108.272 6.02812 108.176 5.65403 107.983 5.34299C107.79 5.02355 107.527 4.78396 107.192 4.62424C106.865 4.45611 106.501 4.37205 106.099 4.37205C105.521 4.37205 105.027 4.55699 104.617 4.92687C104.215 5.29676 103.985 5.80955 103.926 6.46525H108.272Z" fill="#090909"/>
<path d="M117.563 10.5382C116.918 10.5382 116.332 10.3911 115.805 10.0968C115.286 9.80261 114.875 9.38649 114.574 8.84848C114.281 8.30206 114.134 7.67157 114.134 6.95703C114.134 6.25089 114.285 5.62881 114.586 5.0908C114.896 4.54438 115.315 4.12826 115.842 3.84244C116.37 3.54822 116.96 3.4011 117.614 3.4011C118.267 3.4011 118.857 3.54822 119.385 3.84244C119.912 4.12826 120.327 4.54018 120.628 5.07819C120.938 5.6162 121.093 6.24248 121.093 6.95703C121.093 7.67157 120.934 8.30206 120.615 8.84848C120.306 9.38649 119.883 9.80261 119.347 10.0968C118.811 10.3911 118.216 10.5382 117.563 10.5382ZM117.563 9.5294C117.974 9.5294 118.359 9.43272 118.719 9.23938C119.079 9.04603 119.368 8.75601 119.586 8.36931C119.812 7.98261 119.925 7.51185 119.925 6.95703C119.925 6.4022 119.816 5.93144 119.598 5.54475C119.38 5.15805 119.096 4.87223 118.744 4.68729C118.392 4.49394 118.011 4.39727 117.601 4.39727C117.182 4.39727 116.797 4.49394 116.445 4.68729C116.102 4.87223 115.826 5.15805 115.616 5.54475C115.407 5.93144 115.302 6.4022 115.302 6.95703C115.302 7.52026 115.403 7.99522 115.604 8.38192C115.813 8.76861 116.089 9.05864 116.433 9.25199C116.776 9.43693 117.153 9.5294 117.563 9.5294Z" fill="#090909"/>
<path d="M126.201 3.3885C127.038 3.3885 127.716 3.64489 128.235 4.15768C128.755 4.66207 129.014 5.39343 129.014 6.35176V10.4247H127.884V6.51569C127.884 5.82636 127.712 5.30096 127.369 4.93948C127.025 4.5696 126.556 4.38466 125.962 4.38466C125.359 4.38466 124.878 4.5738 124.517 4.95209C124.166 5.33038 123.99 5.881 123.99 6.60396V10.4247H122.847V3.51459H123.99V4.49814C124.216 4.14507 124.522 3.87187 124.907 3.67852C125.3 3.48517 125.732 3.3885 126.201 3.3885Z" fill="#090909"/>
<defs>
<radialGradient id="paint0_angular_833_1273" cx="0" cy="0" r="1" gradientUnits="userSpaceOnUse" gradientTransform="translate(22.014 21.5509) rotate(88.8354) scale(21.5554 21.4716)">
<stop offset="0.000415415" stop-color="#F4605E"/>
<stop offset="0.0642377" stop-color="#E94B80"/>
<stop offset="0.128396" stop-color="#DE33A4"/>
<stop offset="0.186654" stop-color="#D41AC8"/>
<stop offset="0.250949" stop-color="#CB06E5"/>
<stop offset="0.281719" stop-color="#C902EC"/>
<stop offset="0.316858" stop-color="#CB04E5"/>
<stop offset="0.371347" stop-color="#D108D3"/>
<stop offset="0.43351" stop-color="#D80DBA"/>
<stop offset="0.504024" stop-color="#E1139E"/>
<stop offset="0.59576" stop-color="#EC1E7B"/>
<stop offset="0.673288" stop-color="#F22A65"/>
<stop offset="0.713795" stop-color="#F5355B"/>
<stop offset="0.754495" stop-color="#F74452"/>
<stop offset="0.818581" stop-color="#F75651"/>
<stop offset="0.878478" stop-color="#F76051"/>
<stop offset="0.938046" stop-color="#F76551"/>
</radialGradient>
</defs>
</svg>
