<svg width="176" height="42" viewBox="0 0 176 42" fill="none" xmlns="http://www.w3.org/2000/svg">
<path d="M74.3555 39.7201H70.857V25.9096C70.857 24.7785 70.9262 23.3945 71.0646 21.7575H71.0053C70.7878 22.6901 70.5951 23.3598 70.4271 23.7666L64.0824 39.7201H61.6512L55.2916 23.8856C55.1138 23.4193 54.926 22.7099 54.7283 21.7575H54.669C54.7481 22.6107 54.7876 24.0047 54.7876 25.9393V39.7201H51.5263V18.3793H56.4924L62.0811 32.5916C62.5061 33.6829 62.7828 34.4965 62.9113 35.0322H62.9854C63.351 33.9111 63.6475 33.0777 63.8748 32.5321L69.5673 18.3793H74.3555V39.7201Z" fill="#090909"/>
<path d="M80.3451 21.2813C79.7818 21.2813 79.2975 21.0977 78.8923 20.7306C78.497 20.3635 78.2993 19.8972 78.2993 19.3317C78.2993 18.7662 78.497 18.2949 78.8923 17.9179C79.2975 17.5409 79.7818 17.3524 80.3451 17.3524C80.9282 17.3524 81.4223 17.5409 81.8275 17.9179C82.2327 18.2949 82.4353 18.7662 82.4353 19.3317C82.4353 19.8675 82.2327 20.3288 81.8275 20.7157C81.4223 21.0928 80.9282 21.2813 80.3451 21.2813ZM82.0499 39.7201H78.6106V24.4809H82.0499V39.7201Z" fill="#090909"/>
<path d="M96.8153 39.0206C95.5997 39.725 94.1618 40.0773 92.5015 40.0773C90.2482 40.0773 88.4298 39.3728 87.0462 37.964C85.6626 36.5453 84.9708 34.7098 84.9708 32.4577C84.9708 29.9476 85.712 27.9335 87.1944 26.4156C88.6867 24.8877 90.6781 24.1237 93.1686 24.1237C94.5522 24.1237 95.7727 24.3668 96.8301 24.8529V28.0675C95.7727 27.2738 94.646 26.8769 93.4502 26.8769C91.9975 26.8769 90.8066 27.373 89.8776 28.3651C88.9486 29.3473 88.4841 30.6371 88.4841 32.2344C88.4841 33.8119 88.919 35.0571 89.7887 35.9698C90.6682 36.8826 91.8443 37.339 93.3168 37.339C94.5522 37.339 95.7183 36.8975 96.8153 36.0145V39.0206Z" fill="#090909"/>
<path d="M108.438 27.7698C108.023 27.4424 107.425 27.2787 106.644 27.2787C105.626 27.2787 104.776 27.7401 104.095 28.6627C103.413 29.5854 103.072 30.8405 103.072 32.4279V39.7201H99.6325V24.4809H103.072V27.621H103.131C103.467 26.5495 103.981 25.7161 104.673 25.1208C105.374 24.5156 106.155 24.213 107.015 24.213C107.638 24.213 108.112 24.3073 108.438 24.4958V27.7698Z" fill="#090909"/>
<path d="M116.992 40.0773C114.65 40.0773 112.777 39.3679 111.374 37.9491C109.98 36.5205 109.284 34.6304 109.284 32.2791C109.284 29.7194 110.01 27.7202 111.463 26.2816C112.925 24.843 114.892 24.1237 117.363 24.1237C119.735 24.1237 121.583 24.8232 122.907 26.2221C124.231 27.621 124.893 29.5606 124.893 32.041C124.893 34.4717 124.177 36.4212 122.744 37.8896C121.321 39.348 119.404 40.0773 116.992 40.0773ZM117.155 26.8769C115.811 26.8769 114.749 27.3482 113.968 28.2907C113.187 29.2332 112.797 30.5329 112.797 32.1898C112.797 33.7871 113.192 35.0471 113.983 35.9698C114.774 36.8826 115.831 37.339 117.155 37.339C118.509 37.339 119.547 36.8875 120.268 35.9847C121 35.0819 121.365 33.797 121.365 32.1303C121.365 30.4535 121 29.1588 120.268 28.246C119.547 27.3333 118.509 26.8769 117.155 26.8769Z" fill="#090909"/>
<path d="M126.851 39.2439V36.0442C128.136 37.0264 129.554 37.5175 131.105 37.5175C133.181 37.5175 134.218 36.9024 134.218 35.6722C134.218 35.3249 134.13 35.0322 133.952 34.7941C133.774 34.5461 133.532 34.3278 133.225 34.1393C132.929 33.9508 132.573 33.7822 132.158 33.6333C131.753 33.4845 131.298 33.3159 130.794 33.1273C130.171 32.8793 129.608 32.6164 129.104 32.3386C128.61 32.0608 128.195 31.7483 127.859 31.401C127.533 31.0439 127.286 30.6421 127.118 30.1956C126.95 29.7491 126.866 29.2283 126.866 28.633C126.866 27.8988 127.039 27.2539 127.385 26.6983C127.73 26.1328 128.195 25.6615 128.778 25.2845C129.361 24.8976 130.023 24.6099 130.764 24.4214C131.506 24.2229 132.272 24.1237 133.062 24.1237C134.466 24.1237 135.721 24.337 136.828 24.7637V27.7847C135.76 27.0505 134.535 26.6834 133.151 26.6834C132.716 26.6834 132.321 26.7281 131.965 26.8174C131.619 26.9067 131.323 27.0307 131.076 27.1894C130.829 27.3482 130.636 27.5416 130.498 27.7698C130.359 27.9881 130.29 28.2312 130.29 28.499C130.29 28.8264 130.359 29.1042 130.498 29.3324C130.636 29.5606 130.839 29.764 131.105 29.9426C131.382 30.1113 131.708 30.27 132.084 30.4188C132.469 30.5577 132.909 30.7115 133.403 30.8802C134.055 31.148 134.638 31.4209 135.152 31.6987C135.676 31.9765 136.121 32.294 136.487 32.6511C136.852 32.9984 137.134 33.4051 137.332 33.8715C137.529 34.3278 137.628 34.8735 137.628 35.5085C137.628 36.2823 137.45 36.957 137.094 37.5324C136.739 38.1079 136.264 38.5841 135.671 38.9611C135.078 39.3381 134.391 39.6159 133.611 39.7945C132.84 39.983 132.024 40.0773 131.165 40.0773C129.504 40.0773 128.066 39.7995 126.851 39.2439Z" fill="#090909"/>
<path d="M147.027 40.0773C144.685 40.0773 142.812 39.3679 141.409 37.9491C140.015 36.5205 139.319 34.6304 139.319 32.2791C139.319 29.7194 140.045 27.7202 141.498 26.2816C142.96 24.843 144.927 24.1237 147.398 24.1237C149.77 24.1237 151.618 24.8232 152.942 26.2221C154.266 27.621 154.928 29.5606 154.928 32.041C154.928 34.4717 154.212 36.4212 152.779 37.8896C151.356 39.348 149.439 40.0773 147.027 40.0773ZM147.19 26.8769C145.846 26.8769 144.784 27.3482 144.003 28.2907C143.222 29.2332 142.832 30.5329 142.832 32.1898C142.832 33.7871 143.227 35.0471 144.018 35.9698C144.808 36.8826 145.866 37.339 147.19 37.339C148.544 37.339 149.582 36.8875 150.303 35.9847C151.035 35.0819 151.4 33.797 151.4 32.1303C151.4 30.4535 151.035 29.1588 150.303 28.246C149.582 27.3333 148.544 26.8769 147.19 26.8769Z" fill="#090909"/>
<path d="M166.418 19.9716C165.953 19.7038 165.424 19.5698 164.832 19.5698C163.161 19.5698 162.326 20.5173 162.326 22.4123V24.4809H165.854V27.1894H162.341V39.7201H158.902V27.1894H156.308V24.4809H158.902V22.0105C158.902 20.4032 159.426 19.1382 160.473 18.2156C161.521 17.283 162.83 16.8167 164.402 16.8167C165.252 16.8167 165.924 16.9109 166.418 17.0994V19.9716Z" fill="#090909"/>
<path d="M175.698 39.5564C175.026 39.8937 174.142 40.0624 173.045 40.0624C170.1 40.0624 168.627 38.6436 168.627 35.8061V27.1894H166.092V24.4809H168.627V20.9539L172.066 19.9716V24.4809H175.698V27.1894H172.066V34.809C172.066 35.7119 172.229 36.3568 172.556 36.7437C172.882 37.1306 173.425 37.3241 174.186 37.3241C174.769 37.3241 175.273 37.1554 175.698 36.8181V39.5564Z" fill="#090909"/>
<path d="M59.1434 9.83338C58.2041 10.347 57.1579 10.6038 56.0047 10.6038C54.6712 10.6038 53.5915 10.187 52.7654 9.35348C51.9393 8.51996 51.5262 7.41702 51.5262 6.04466C51.5262 4.64283 51.977 3.49358 52.8786 2.59692C53.7844 1.69605 54.9333 1.24561 56.3255 1.24561C57.3277 1.24561 58.1706 1.39295 58.8541 1.68763V3.23469C58.1622 2.77162 57.3382 2.54009 56.3821 2.54009C55.4218 2.54009 54.6335 2.85792 54.0171 3.49358C53.4049 4.12925 53.0987 4.95224 53.0987 5.96257C53.0987 7.00236 53.3629 7.82115 53.8913 8.41893C54.4196 9.01249 55.1367 9.30928 56.0425 9.30928C56.6631 9.30928 57.1998 9.1893 57.6527 8.94935V6.79609H55.7531V5.53318H59.1434V9.83338Z" fill="#090909"/>
<path d="M66.5057 7.61698H62.1153C62.1321 8.21476 62.3145 8.67572 62.6625 8.99986C63.0148 9.32401 63.497 9.48608 64.1092 9.48608C64.7969 9.48608 65.428 9.27981 66.0025 8.86726V10.0481C65.4155 10.4185 64.6397 10.6038 63.6752 10.6038C62.7275 10.6038 61.9832 10.3112 61.4423 9.72603C60.9055 9.13668 60.6372 8.30947 60.6372 7.24442C60.6372 6.2383 60.9328 5.41952 61.5241 4.78807C62.1195 4.1524 62.8575 3.83457 63.7381 3.83457C64.6187 3.83457 65.3001 4.11872 65.7824 4.68703C66.2646 5.25534 66.5057 6.04466 66.5057 7.05498V7.61698ZM65.0968 6.58139C65.0926 6.05518 64.9689 5.64684 64.7257 5.35637C64.4824 5.0617 64.147 4.91436 63.7193 4.91436C63.2999 4.91436 62.9435 5.06801 62.65 5.37532C62.3606 5.68262 62.1824 6.08465 62.1153 6.58139H65.0968Z" fill="#090909"/>
<path d="M71.4212 10.3827C71.1361 10.5259 70.7608 10.5974 70.2953 10.5974C69.0457 10.5974 68.4209 9.99546 68.4209 8.79148V5.13536H67.3453V3.98612H68.4209V2.48957L69.8802 2.07281V3.98612H71.4212V5.13536H69.8802V8.36841C69.8802 8.75149 69.9494 9.02512 70.0878 9.1893C70.2261 9.35348 70.4568 9.43557 70.7797 9.43557C71.0271 9.43557 71.2409 9.364 71.4212 9.22087V10.3827Z" fill="#090909"/>
<path d="M77.2203 2.62849C76.9813 2.62849 76.7759 2.55061 76.6039 2.39485C76.4362 2.2391 76.3523 2.04124 76.3523 1.80129C76.3523 1.56134 76.4362 1.36138 76.6039 1.20141C76.7759 1.04144 76.9813 0.961454 77.2203 0.961454C77.4678 0.961454 77.6774 1.04144 77.8493 1.20141C78.0213 1.36138 78.1072 1.56134 78.1072 1.80129C78.1072 2.02861 78.0213 2.22436 77.8493 2.38854C77.6774 2.54851 77.4678 2.62849 77.2203 2.62849ZM77.9437 10.4522H76.4844V3.98612H77.9437V10.4522Z" fill="#090909"/>
<path d="M83.3813 10.3827C83.0961 10.5259 82.7208 10.5974 82.2554 10.5974C81.0057 10.5974 80.3809 9.99546 80.3809 8.79148V5.13536H79.3054V3.98612H80.3809V2.48957L81.8402 2.07281V3.98612H83.3813V5.13536H81.8402V8.36841C81.8402 8.75149 81.9094 9.02512 82.0478 9.1893C82.1862 9.35348 82.4168 9.43557 82.7397 9.43557C82.9871 9.43557 83.201 9.364 83.3813 9.22087V10.3827Z" fill="#090909"/>
<path d="M92.0864 2.07281C91.8893 1.95915 91.6649 1.90232 91.4133 1.90232C90.7047 1.90232 90.3503 2.30435 90.3503 3.1084V3.98612H91.8473V5.13536H90.3566V10.4522H88.8973V5.13536H87.7966V3.98612H88.8973V2.93791C88.8973 2.25593 89.1196 1.7192 89.5641 1.3277C90.0086 0.931986 90.5642 0.734131 91.2309 0.734131C91.5916 0.734131 91.8767 0.774123 92.0864 0.854107V2.07281Z" fill="#090909"/>
<path d="M96.7503 5.38163C96.5741 5.24271 96.3205 5.17325 95.9892 5.17325C95.5573 5.17325 95.1966 5.369 94.9073 5.7605C94.618 6.15201 94.4733 6.68453 94.4733 7.35808V10.4522H93.014V3.98612H94.4733V5.31849H94.4984C94.641 4.86384 94.8591 4.51023 95.1526 4.25764C95.4503 4.00085 95.7816 3.87246 96.1464 3.87246C96.4106 3.87246 96.6119 3.91245 96.7503 3.99243V5.38163Z" fill="#090909"/>
<path d="M100.766 10.6038C99.7725 10.6038 98.9778 10.3028 98.3824 9.70078C97.7911 9.09458 97.4955 8.29263 97.4955 7.29494C97.4955 6.20884 97.8037 5.36058 98.4201 4.75018C99.0407 4.13977 99.8752 3.83457 100.924 3.83457C101.93 3.83457 102.714 4.13135 103.276 4.72492C103.838 5.31849 104.119 6.14148 104.119 7.1939C104.119 8.22528 103.815 9.05248 103.207 9.67552C102.603 10.2943 101.789 10.6038 100.766 10.6038ZM100.835 5.00276C100.265 5.00276 99.8144 5.20272 99.4831 5.60264C99.1519 6.00256 98.9862 6.55403 98.9862 7.25705C98.9862 7.93481 99.154 8.46944 99.4894 8.86094C99.8249 9.24823 100.274 9.44188 100.835 9.44188C101.41 9.44188 101.85 9.25034 102.156 8.86726C102.467 8.48418 102.622 7.93902 102.622 7.23179C102.622 6.52035 102.467 5.97099 102.156 5.5837C101.85 5.19641 101.41 5.00276 100.835 5.00276Z" fill="#090909"/>
<path d="M115.368 10.4522H113.909V6.92869C113.909 6.25093 113.813 5.7605 113.62 5.45741C113.431 5.15431 113.11 5.00276 112.657 5.00276C112.276 5.00276 111.951 5.1943 111.682 5.57738C111.418 5.96046 111.286 6.41932 111.286 6.95395V10.4522H109.821V6.80872C109.821 5.60475 109.397 5.00276 108.55 5.00276C108.156 5.00276 107.831 5.18378 107.575 5.54581C107.323 5.90784 107.198 6.37722 107.198 6.95395V10.4522H105.738V3.98612H107.198V5.00907H107.223C107.688 4.22607 108.366 3.83457 109.255 3.83457C109.699 3.83457 110.087 3.95876 110.418 4.20713C110.754 4.45129 110.982 4.77333 111.104 5.17325C111.582 4.2808 112.295 3.83457 113.242 3.83457C114.66 3.83457 115.368 4.71229 115.368 6.46773V10.4522Z" fill="#090909"/>
<rect x="0.732788" width="19.7987" height="19.876" fill="#F15021"/>
<rect x="22.3315" width="19.7987" height="19.876" fill="#7EB900"/>
<rect x="0.732849" y="21.6827" width="19.7987" height="19.876" fill="#00A3EE"/>
<rect x="22.3315" y="21.6827" width="19.7987" height="19.876" fill="#FFB800"/>
</svg>
